<svg id="Capa_1" enable-background="new 0 0 512 512" height="512" viewBox="0 0 512 512" width="512" xmlns="http://www.w3.org/2000/svg"><g><g><path d="m256 0c-109.966 0-199.43 89.464-199.43 199.43 0 36.662 10.357 75.912 30.785 116.659 16.184 32.284 38.709 65.611 66.95 99.054 47.933 56.762 96.601 94.896 97.086 95.274 1.355 1.056 2.982 1.583 4.609 1.583s3.254-.527 4.609-1.583c.841-.655 84.759-66.533 141.624-155.177 2.236-3.486 1.223-8.126-2.263-10.362-3.489-2.239-8.126-1.224-10.363 2.263-47.864 74.614-115.492 132.797-133.61 147.717-13.059-10.737-51.813-43.897-90.231-89.393-27.478-32.539-49.347-64.871-65.001-96.098-19.373-38.641-29.195-75.63-29.195-109.937 0-101.696 82.735-184.43 184.43-184.43s184.43 82.734 184.43 184.43c0 36.718-11.237 76.44-33.4 118.065-1.947 3.655-.561 8.198 3.095 10.145 3.656 1.945 8.198.562 10.145-3.096 23.331-43.817 35.16-85.912 35.16-125.114 0-109.966-89.464-199.43-199.43-199.43z"/><path d="m133.915 116.327c-3.535-2.155-8.151-1.037-10.308 2.498-14.776 24.229-22.586 52.103-22.586 80.604 0 85.456 69.524 154.98 154.98 154.98s154.98-69.524 154.98-154.98-69.525-154.979-154.981-154.979c-41.462 0-80.421 16.167-109.7 45.523-2.925 2.933-2.919 7.681.014 10.606s7.682 2.919 10.606-.015c26.445-26.512 61.632-41.114 99.08-41.114 77.185 0 139.98 62.795 139.98 139.979 0 77.186-62.795 139.98-139.98 139.98s-139.98-62.795-139.98-139.98c0-25.746 7.052-50.918 20.393-72.794 2.157-3.536 1.038-8.151-2.498-10.308z"/><path d="m216.769 214.749c-18.679 3.278-32.918 19.623-32.918 39.231 0 21.956 17.863 39.819 39.82 39.819h14.83c4.142 0 7.5-3.357 7.5-7.5s-3.358-7.5-7.5-7.5h-14.83c-13.686 0-24.82-11.134-24.82-24.819 0-13.691 11.134-24.83 24.82-24.83 4.142 0 7.5-3.357 7.5-7.5 0-13.686 11.139-24.82 24.83-24.82s24.83 11.135 24.83 24.82c0 4.143 3.358 7.5 7.5 7.5 13.686 0 24.82 11.139 24.82 24.83 0 13.686-11.134 24.819-24.82 24.819h-14.831c-4.142 0-7.5 3.357-7.5 7.5s3.358 7.5 7.5 7.5h14.83c21.957 0 39.82-17.863 39.82-39.819 0-19.608-14.24-35.953-32.918-39.231-3.279-18.679-19.624-32.919-39.232-32.919s-35.953 14.24-39.231 32.919z"/><path d="m211.552 106.447c-14.511 4.771-22.437 20.457-17.667 34.969 3.687 11.215 17.941 28.16 32.495 28.16 1.877 0 3.762-.282 5.628-.896 16.325-5.366 18.674-31.903 14.513-44.565-4.77-14.511-20.456-22.437-34.969-17.668zm15.772 47.984c-4.861 1.594-16.328-8.992-19.189-17.698-2.187-6.654 1.447-13.848 8.101-16.035 1.312-.431 2.646-.636 3.957-.636 5.34 0 10.322 3.396 12.078 8.737 2.861 8.706-.098 24.038-4.947 25.632z"/><path d="m147.487 159.11c-11.649 9.881-13.088 27.397-3.208 39.048 4.542 5.354 12.315 10.396 20.287 13.154 4.274 1.479 8.312 2.215 11.998 2.215 5.26 0 9.804-1.496 13.296-4.458 5.939-5.037 8.192-13.77 6.342-24.589-1.421-8.314-5.126-16.807-9.668-22.162-9.882-11.648-27.398-13.088-39.047-3.208zm32.67 38.52c-1.335 1.135-5.157 1.422-10.685-.491-5.41-1.873-10.938-5.362-13.754-8.684-4.531-5.342-3.871-13.374 1.471-17.905 2.384-2.021 5.302-3.01 8.207-3.01 3.605 0 7.189 1.523 9.698 4.481 2.816 3.321 5.357 9.344 6.322 14.987.985 5.764.078 9.488-1.259 10.622z"/><path d="m300.447 106.447c-14.511-4.771-30.198 3.156-34.968 17.668-4.161 12.662-1.812 39.199 14.514 44.565 1.866.613 3.749.896 5.627.896 14.553 0 28.809-16.946 32.495-28.16 4.77-14.512-3.156-30.198-17.668-34.969zm3.418 30.285c-2.862 8.706-14.349 19.291-19.188 17.698-4.85-1.594-7.809-16.926-4.948-25.632 2.188-6.654 9.384-10.285 16.034-8.102 6.655 2.189 10.289 9.382 8.102 16.036z"/><path d="m322.14 209.069c3.492 2.962 8.036 4.458 13.296 4.458 3.686 0 7.725-.735 11.998-2.215 7.971-2.759 15.745-7.8 20.287-13.154 9.88-11.65 8.441-29.167-3.208-39.048-11.649-9.882-29.166-8.441-39.046 3.208-4.542 5.355-8.247 13.848-9.668 22.162-1.85 10.82.402 19.552 6.341 24.589zm8.444-22.06c.965-5.644 3.505-11.666 6.322-14.987 4.531-5.342 12.563-6.003 17.904-1.472 5.342 4.531 6.002 12.563 1.472 17.905-2.816 3.321-8.344 6.811-13.754 8.684-5.525 1.913-9.347 1.626-10.685.491-1.337-1.134-2.244-4.858-1.259-10.621z"/></g></g></svg>